#!OML:ASF F:\VICON\USERDATA\INSTALL\rory3\rory3.ASF
:FULLY-SPECIFIED
:DEGREES


345
root -0.262958 17.7895 33.3031 -1.74915 -4.63534 -8.03409
lowerback 10.2387 1.84652 7.05577
upperback 0.146334 3.42018 2.36171
thorax -5.33265 1.52969 -1.97786
lowerneck -15.2877 -2.89522 -2.10066
upperneck 20.1423 -3.82597 1.4663
head 8.89953 -1.79856 0.383754
rclavicle 1.83732e-014 1.80459e-015
rhumerus -22.8895 -9.56737 -81.9096
rradius 29.9926
rwrist 1.33726
rhand -19.1205 24.337
rfingers 7.12502
rthumb 7.18887 -5.5209
lclavicle 1.83732e-014 1.80459e-015
lhumerus -34.3694 8.46653 81.1628
lradius 23.7872
lwrist 1.77301
lhand -28.8324 22.9858
lfingers 7.12502
lthumb -2.18987 52.9543
rfemur -0.137196 5.63659 35.7226
rtibia 28.3217
rfoot -19.8731 -5.87415
rtoes 9.98946
lfemur -29.072 1.44979 -10.9673
ltibia 44.3811
lfoot -4.46093 4.4417
ltoes -5.69807
346
root -0.2567 17.7797 33.4724 -1.56601 -4.72248 -8.27248
lowerback 10.1652 1.87126 7.33559
upperback 0.121032 3.4824 2.40144
thorax -5.29984 1.55408 -2.09686
lowerneck -15.2459 -2.89146 -2.04179
upperneck 20.0076 -3.83052 1.45339
head 8.84427 -1.79852 0.370457
rclavicle 2.61902e-014 1.15233e-015
rhumerus -22.3791 -9.25391 -81.9455
rradius 30.418
rwrist 1.19377
rhand -19.2593 24.0106
rfingers 7.12502
rthumb 7.05488 -5.85182
lclavicle 2.61902e-014 1.15233e-015
lhumerus -34.6484 8.81565 81.1548
lradius 23.7424
lwrist 2.81066
lhand -30.1263 22.4228
lfingers 7.12502
lthumb -3.43946 52.3748
rfemur 0.52552 5.6782 35.9897
rtibia 27.903
rfoot -20.0466 -5.96893
rtoes 10.0423
lfemur -29.0721 1.0581 -10.5768
ltibia 41.3787
lfoot -2.89815 4.36548
ltoes -2.73385
347
root -0.253697 17.7779 33.6438 -1.30178 -4.86977 -8.44547
lowerback 10.0054 1.92074 7.47029
upperback 0.17168 3.54538 2.42494
thorax -5.14454 1.58875 -2.14658
lowerneck -15.7634 -2.87383 -1.96527
upperneck 20.1552 -3.82476 1.48047
head 8.98836 -1.78234 0.359558
rclavicle -1.11205e-014 6.23997e-015
rhumerus -21.5341 -8.95147 -82.0127
rradius 30.4989
rwrist 0.886722
rhand -19.356 24.3423
rfingers 7.12502
rthumb 6.96147 -5.52319
lclavicle -1.11205e-014 6.23997e-015
lhumerus -34.6806 9.3268 81.0084
lradius 23.3525
lwrist 3.35511
lhand -31.2759 21.157
lfingers 7.12502
lthumb -4.54955 51.0882
rfemur 1.16626 5.72666 36.1733
rtibia 27.4112
rfoot -19.6853 -5.84453
rtoes 12.0418
lfemur -29.1319 0.605145 -10.207
ltibia 38.2919
lfoot -2.2539 3.91018
ltoes -4.97977
348
root -0.249415 17.7702 33.8247 -1.1109 -5.15086 -8.47253
lowerback 9.8278 2.03444 7.42573
upperback 0.166793 3.67407 2.42997
thorax -5.04133 1.65715 -2.12492
lowerneck -15.912 -2.90792 -1.97009
upperneck 20.3112 -3.88955 1.55814
head 9.07239 -1.80251 0.375718
rclavicle 6.16702e-014 2.73888e-014
rhumerus -20.9422 -8.65891 -82.0255
rradius 30.5377
rwrist 0.653242
rhand -19.5221 24.5361
rfingers 7.12502
rthumb 6.80118 -5.33469
lclavicle 6.16702e-014 2.73888e-014
lhumerus -34.945 9.93696 80.6827
lradius 22.6148
lwrist 3.23472
lhand -32.076 19.663
lfingers 7.12502
lthumb -5.32216 49.5762
rfemur 1.88862 5.86404 36.1823
rtibia 26.996
rfoot -19.8897 -5.77723
rtoes 11.631
lfemur -28.969 -0.0845158 -9.85198
ltibia 35.1453
lfoot -1.72199 3.9088
ltoes -6.59379
349
root -0.244174 17.7609 33.9932 -0.964453 -5.40427 -8.54233
lowerback 9.90474 2.16108 7.53339
upperback 0.143174 3.86154 2.39543
thorax -5.08391 1.74404 -2.24875
lowerneck -16.1248 -2.97268 -1.8522
upperneck 20.3861 -3.9862 1.46425
head 9.13442 -1.84672 0.308528
rclavicle 2.81241e-014 1.86361e-016
rhumerus -20.509 -8.53713 -82.0225
rradius 30.8434
rwrist 0.486744
rhand -19.7598 24.6328
rfingers 7.12502
rthumb 6.57173 -5.2452
lclavicle 2.81241e-014 1.86361e-016
lhumerus -35.0218 10.8548 80.1059
lradius 21.7387
lwrist 2.04673
lhand -31.4811 19.717
lfingers 7.12502
lthumb -4.7477 49.6438
rfemur 2.66248 6.11843 36.2876
rtibia 26.4804
rfoot -19.9276 -6.01572
rtoes 10.2421
lfemur -28.8615 -0.954377 -9.3483
ltibia 31.9879
lfoot -0.984961 4.19822
ltoes -6.35344
350
root -0.224335 17.7226 34.1617 -0.70204 -5.32721 -8.4076
lowerback 9.83178 2.13911 7.6003
upperback 0.107122 3.82942 2.29281
thorax -5.07244 1.72511 -2.38608
lowerneck -16.4479 -2.96252 -1.74016
upperneck 20.4402 -3.96491 1.3259
head 9.20648 -1.84057 0.240371
rclavicle 2.59787e-014 4.12478e-015
rhumerus -19.9556 -8.6329 -82.0182
rradius 31.1381
rwrist 0.488192
rhand -19.7857 24.3127
rfingers 7.12502
rthumb 6.54665 -5.5661
lclavicle 2.59787e-014 4.12478e-015
lhumerus -34.9438 11.9934 79.3885
lradius 20.7062
lwrist 0.254055
lhand -30.4972 19.5206
lfingers 7.12502
lthumb -3.79757 49.4666
rfemur 3.27355 5.81381 36.0221
rtibia 26.0669
rfoot -20.1043 -6.05203
rtoes 7.66829
lfemur -28.5087 -1.72535 -9.32523
ltibia 28.8542
lfoot -0.733533 4.11519
ltoes -11.8068
351
root -0.223767 17.7091 34.3533 -0.787939 -5.70788 -8.79614
lowerback 9.88625 2.2312 7.8903
upperback 0.111739 3.99643 2.42369
thorax -5.07357 1.80127 -2.43306
lowerneck -15.9477 -2.94498 -1.67121
upperneck 20.0906 -3.95141 1.29212
head 8.99152 -1.83861 0.228983
rclavicle -4.38491e-015 -4.68386e-015
rhumerus -19.6452 -8.48005 -81.9891
rradius 31.3019
rwrist 0.413674
rhand -19.8237 24.4454
rfingers 7.12502
rthumb 6.50997 -5.43459
lclavicle -4.38491e-015 -4.68386e-015
lhumerus -35.2799 12.6488 78.8532
lradius 19.7832
lwrist -0.422951
lhand -32.6622 14.7248
lfingers 7.12502
lthumb -5.8881 44.6229
rfemur 4.38695 6.02523 36.4734
rtibia 25.6512
rfoot -20.3386 -6.72509
rtoes 4.53343
lfemur -27.9382 -2.63252 -8.38891
ltibia 25.861
lfoot -0.860275 4.54944
ltoes -11.1596
352
root -0.215984 17.6935 34.5356 -0.642697 -5.93077 -8.96767
lowerback 9.79359 2.3012 8.04052
upperback 0.0305145 4.10351 2.4457
thorax -5.08896 1.84797 -2.50349
lowerneck -15.4886 -2.92628 -1.50827
upperneck 19.6995 -3.94611 1.20604
head 8.76811 -1.83894 0.183255
rclavicle -2.4991e-014 7.20594e-016
rhumerus -19.4629 -8.26129 -82.0041
rradius 31.5346
rwrist 0.19596
rhand -19.9882 24.6344
rfingers 7.12502
rthumb 6.35121 -5.25043
lclavicle -2.4991e-014 7.20594e-016
lhumerus -35.6459 13.4541 78.2951
lradius 19.1502
lwrist -0.915815
lhand -33.5441 12.4166
lfingers 7.12502
lthumb -6.7395 42.2894
rfemur 5.07217 5.98742 36.5546
rtibia 25.3374
rfoot -20.5782 -7.06763
rtoes 1.87117
lfemur -27.658 -3.70553 -7.70634
ltibia 23.0281
lfoot -1.20822 5.19622
ltoes -9.9459
353
root -0.207437 17.677 34.7098 -0.413061 -6.03737 -9.11874
lowerback 9.77522 2.29386 8.12397
upperback -0.0386733 4.1095 2.50553
thorax -5.15053 1.84527 -2.48861
lowerneck -15.5774 -2.87352 -1.49582
upperneck 19.6388 -3.86715 1.17648
head 8.76147 -1.80388 0.179924
rclavicle -2.33207e-014 -6.85807e-015
rhumerus -19.1155 -8.28601 -82.0072
rradius 31.7558
rwrist 0.101854
rhand -19.8464 24.3528
rfingers 7.12502
rthumb 6.48813 -5.52787
lclavicle -2.33207e-014 -6.85807e-015
lhumerus -35.9569 14.4129 77.7728
lradius 18.7189
lwrist -1.59744
lhand -28.1538 17.488
lfingers 7.12502
lthumb -1.53447 47.4622
rfemur 5.63844 5.98979 36.6419
rtibia 24.9496
rfoot -20.6636 -6.29258
rtoes 1.65342
lfemur -27.567 -4.77691 -7.02963
ltibia 20.4052
lfoot -1.91171 5.85283
ltoes -8.17147
354
root -0.198315 17.6654 34.8932 -0.328012 -6.24753 -9.16528
lowerback 9.80192 2.3537 8.14819
upperback -0.0988272 4.19882 2.50266
thorax -5.21879 1.88422 -2.51928
lowerneck -15.5489 -2.87022 -1.65985
upperneck 19.692 -3.88635 1.45896
head 8.78448 -1.79477 0.300063
rclavicle -2.10991e-014 -1.33931e-014
rhumerus -18.8447 -8.38231 -82.0257
rradius 31.908
rwrist -0.0845024
rhand -19.6072 24.0844
rfingers 7.12502
rthumb 6.71905 -5.789
lclavicle -2.10991e-014 -1.33931e-014
lhumerus -36.2326 15.0298 77.2625
lradius 17.9589
lwrist -2.24031
lhand -27.5691 24.3604
lfingers 7.12502
lthumb -0.969749 54.338
rfemur 6.28735 6.03743 36.6195
rtibia 24.7887
rfoot -20.9349 -5.61695
rtoes 0.821726
lfemur -27.2446 -5.74848 -6.50759
ltibia 18.0109
lfoot -3.04146 6.45862
ltoes -5.859
355
root -0.188973 17.6539 35.0865 -0.274096 -6.54437 -9.10103
lowerback 9.65759 2.47431 8.08222
upperback -0.0328172 4.32789 2.44789
thorax -5.05468 1.95732 -2.54583
lowerneck -15.7952 -2.88505 -1.68437
upperneck 19.8153 -3.94302 1.64958
head 8.87731 -1.79985 0.3574
rclavicle 1.17733e-014 3.23025e-015
rhumerus -18.4885 -8.64185 -82.063
rradius 31.9441
rwrist 0.039412
rhand -19.7634 24.2292
rfingers 7.12502
rthumb 6.56819 -5.64893
lclavicle 1.17733e-014 3.23025e-015
lhumerus -36.2756 14.8617 77.2002
lradius 17.4033
lwrist -1.97691
lhand -27.2651 26.872
lfingers 7.12502
lthumb -0.676104 56.8507
rfemur 6.94236 6.18936 36.464
rtibia 24.8427
rfoot -21.1137 -5.34769
rtoes -0.182524
lfemur -26.7519 -6.60287 -6.16802
ltibia 15.7949
lfoot -3.82908 7.36522
ltoes -4.07949
356
root -0.174705 17.6317 35.2826 -0.264664 -6.7895 -9.17591
lowerback 9.97518 2.51208 8.14917
upperback -0.252142 4.43782 2.47596
thorax -5.45356 1.98756 -2.59249
lowerneck -15.7742 -2.91293 -1.70257
upperneck 20.0768 -3.9819 1.63978
head 8.96414 -1.81903 0.35106
rclavicle -3.39844e-014 -2.80038e-014
rhumerus -18.7052 -8.71998 -82.0136
rradius 32.273
rwrist 0.158805
rhand -19.6542 23.7939
rfingers 7.12502
rthumb 6.67367 -6.08092
lclavicle -3.39844e-014 -2.80038e-014
lhumerus -36.9308 14.8816 76.9717
lradius 17.2846
lwrist -2.02178
lhand -26.6488 29.07
lfingers 7.12502
lthumb -0.0809056 59.0498
rfemur 7.55266 6.21083 36.4094
rtibia 25.0825
rfoot -21.233 -4.92527
rtoes -0.945987
lfemur -26.1807 -6.84897 -5.97768
ltibia 13.8132
lfoot -4.39808 7.9863
ltoes -4.71057
357
root -0.157535 17.6111 35.4752 -0.314441 -6.92029 -8.80272
lowerback 9.5207 2.62262 7.95583
upperback 0.118387 4.47781 2.31255
thorax -4.80035 2.04696 -2.62236
lowerneck -16.1409 -3.00989 -1.67238
upperneck 19.8228 -4.12592 1.69953
head 8.94711 -1.87627 0.344517
rclavicle -4.68526e-014 -5.11871e-015
rhumerus -17.9018 -8.99334 -82.1053
rradius 32.4869
rwrist 0.0797111
rhand -19.6805 22.9029
rfingers 7.12502
rthumb 6.64827 -6.97272
lclavicle -4.68526e-014 -5.11871e-015
lhumerus -36.4942 15.7682 76.5738
lradius 16.7876
lwrist -3.08601
lhand -26.27 29.0182
lfingers 7.12502
lthumb 0.284986 58.9978
rfemur 8.01653 6.15285 35.8288
rtibia 25.5017
rfoot -21.2937 -4.45018
rtoes -1.23458
lfemur -25.691 -7.32024 -6.3167
ltibia 12.3726
lfoot -5.2928 8.87937
ltoes -5.07535
358
root -0.143664 17.5918 35.6631 -0.336315 -7.04447 -8.59351
lowerback 9.53217 2.65571 7.80897
upperback 0.179246 4.49742 2.21285
thorax -4.74288 2.06285 -2.64646
lowerneck -16.3078 -2.99192 -1.49311
upperneck 19.7665 -4.10189 1.51485
head 8.94936 -1.87069 0.253215
rclavicle -8.04146e-015 1.07344e-014
rhumerus -17.514 -9.24314 -82.2022
rradius 32.4725
rwrist 0.136499
rhand -19.8168 22.9353
rfingers 7.12502
rthumb 6.51668 -6.94444
lclavicle -8.04146e-015 1.07344e-014
lhumerus -36.5629 16.1996 76.2155
lradius 16.3095
lwrist -3.66864
lhand -26.6493 27.7443
lfingers 7.12502
lthumb -0.0813761 57.7241
rfemur 8.33906 6.39043 35.5428
rtibia 26.0535
rfoot -21.1437 -4.22487
rtoes -1.85334
lfemur -25.4124 -7.1856 -6.7198
ltibia 11.6788
lfoot -6.02609 9.15526
ltoes -6.22617
